<svg width="120" height="40" viewBox="0 0 120 40" fill="none" xmlns="http://www.w3.org/2000/svg">
<path d="M10.1252 31.588C8.06581 31.588 6.26387 31.1445 4.71936 30.2575C3.20344 29.3419 2.03075 28.0544 1.20129 26.3948C0.40043 24.7067 0 22.7182 0 20.4292C0 18.1402 0.40043 16.166 1.20129 14.5064C2.03075 12.8183 3.18914 11.5308 4.67645 10.6438C6.19237 9.72818 7.9657 9.27039 9.99645 9.27039C11.2263 9.27039 12.2989 9.45637 13.2142 9.82833C14.1295 10.1717 14.8874 10.6724 15.4881 11.3305V0H22.5671V31.2446H15.4881V29.3991C14.916 30.1144 14.1581 30.6581 13.2142 31.03C12.2703 31.402 11.2406 31.588 10.1252 31.588ZM11.3694 25.5794C12.256 25.5794 13.0426 25.3648 13.729 24.9356C14.4155 24.5064 14.9446 23.9056 15.3165 23.133C15.6883 22.3605 15.8742 21.4592 15.8742 20.4292C15.8742 18.8841 15.4595 17.6395 14.63 16.6953C13.8005 15.7511 12.7137 15.279 11.3694 15.279C10.4827 15.279 9.69613 15.4936 9.00968 15.9227C8.35183 16.3519 7.83699 16.9528 7.46516 17.7253C7.09333 18.4979 6.90742 19.3991 6.90742 20.4292C6.90742 21.9742 7.30785 23.2189 8.10871 24.1631C8.93817 25.1073 10.0251 25.5794 11.3694 25.5794Z" fill="currentColor"/>
<path d="M34.8207 31.588C33.0473 31.588 31.4599 31.2732 30.0584 30.6438C28.6855 29.9857 27.5986 29.0701 26.7978 27.897C25.9969 26.7239 25.5679 25.3648 25.5107 23.8197H31.4742C31.5886 24.5923 31.9461 25.2217 32.5468 25.7082C33.176 26.166 33.934 26.3948 34.8207 26.3948C35.5643 26.3948 36.165 26.2518 36.6226 25.9657C37.1088 25.6795 37.352 25.3076 37.352 24.8498C37.352 24.4206 37.1946 24.0916 36.88 23.8627C36.5654 23.6051 36.1793 23.4192 35.7216 23.3047C35.2926 23.1617 34.6061 23.0043 33.6623 22.8326C32.1464 22.5751 30.8879 22.2747 29.8868 21.9313C28.8857 21.5594 28.0133 20.9156 27.2697 20C26.526 19.0558 26.1542 17.7253 26.1542 16.0086C26.1542 14.721 26.4974 13.5765 27.1839 12.5751C27.8703 11.5451 28.7999 10.7439 29.9726 10.1717C31.1739 9.57082 32.4896 9.27039 33.9197 9.27039C35.693 9.27039 37.2661 9.57082 38.639 10.1717C40.012 10.7725 41.0845 11.6166 41.8568 12.7039C42.6577 13.7911 43.0867 15.0644 43.1439 16.5236H37.1374C37.023 15.8083 36.6941 15.2217 36.1507 14.7639C35.6072 14.2775 34.9637 14.0343 34.22 14.0343C33.5336 14.0343 32.9901 14.1774 32.5897 14.4635C32.1893 14.7496 31.989 15.1645 31.989 15.7082C31.989 16.166 32.1464 16.5236 32.461 16.7811C32.7756 17.01 33.176 17.1817 33.6623 17.2961C34.1771 17.4106 34.8779 17.525 35.7645 17.6395C37.3377 17.8398 38.6247 18.1116 39.6258 18.4549C40.6555 18.7697 41.5422 19.4134 42.2858 20.3863C43.0581 21.3305 43.4442 22.7182 43.4442 24.5494C43.4442 25.9514 43.0867 27.1817 42.3716 28.2403C41.6566 29.299 40.6412 30.1288 39.3255 30.7296C38.0384 31.3019 36.5368 31.588 34.8207 31.588Z" fill="currentColor"/>
<path d="M48.8423 34.5923H58.7959C59.5109 34.5923 60.0973 34.3205 60.5549 33.7768C61.0125 33.2618 61.2413 32.6037 61.2413 31.8026V29.3991C60.6693 30.0858 59.897 30.6295 58.9246 31.03C57.9807 31.402 56.951 31.588 55.8355 31.588C53.7762 31.588 51.9742 31.1445 50.4297 30.2575C48.9138 29.3419 47.7411 28.0544 46.9117 26.3948C46.1108 24.7067 45.7104 22.7182 45.7104 20.4292C45.7104 18.1402 46.1108 16.166 46.9117 14.5064C47.7411 12.8183 48.8995 11.5308 50.3868 10.6438C51.9027 9.72818 53.6761 9.27039 55.7068 9.27039C56.9367 9.27039 58.0093 9.45637 58.9246 9.82833C59.8398 10.1717 60.5978 10.6724 61.1984 11.3305V9.61374H68.2775V32.6609C68.2775 34.1488 67.9342 35.4363 67.2478 36.5236C66.5899 37.6395 65.6318 38.4979 64.3733 39.0987C63.1434 39.6996 61.7133 40 60.083 40H48.8423V34.5923ZM57.0797 25.5794C57.9664 25.5794 58.753 25.3648 59.4394 24.9356C60.1259 24.5064 60.655 23.9056 61.0268 23.133C61.3987 22.3605 61.5846 21.4592 61.5846 20.4292C61.5846 18.8555 61.1698 17.6109 60.3404 16.6953C59.5395 15.7511 58.4526 15.279 57.0797 15.279C56.1931 15.279 55.4065 15.4936 54.7201 15.9227C54.0622 16.3519 53.5474 16.9528 53.1755 17.7253C52.8037 18.4979 52.6178 19.3991 52.6178 20.4292C52.6178 22.0029 53.0182 23.2618 53.8191 24.206C54.6485 25.1216 55.7354 25.5794 57.0797 25.5794Z" fill="currentColor"/>
<path d="M72.3794 9.61374H79.4585V12.103C80.0877 11.2446 80.9601 10.5579 82.0756 10.0429C83.191 9.5279 84.4352 9.27039 85.8081 9.27039C87.3812 9.27039 88.7685 9.62804 89.9697 10.3433C91.1996 11.0587 92.1435 12.0601 92.8014 13.3476C93.4878 14.6066 93.831 16.0372 93.831 17.6395V31.2446H86.752V19.3133C86.752 18.226 86.4088 17.3247 85.7223 16.6094C85.0359 15.8941 84.1635 15.5365 83.1052 15.5365C82.3902 15.5365 81.7609 15.7082 81.2175 16.0515C80.674 16.3662 80.245 16.8097 79.9304 17.382C79.6158 17.9542 79.4585 18.598 79.4585 19.3133V31.2446H72.3794V9.61374Z" fill="currentColor"/>
<path d="M108.539 15.4506C107.366 15.4506 106.451 15.8798 105.793 16.7382C105.135 17.5966 104.807 18.784 104.807 20.3004V31.2446H97.7275V9.61374H104.807V12.8755C105.407 11.6452 106.108 10.8011 106.909 10.3433C107.738 9.85694 108.782 9.61374 110.041 9.61374H112.315V15.4506H108.539Z" fill="currentColor"/>
<path d="M119.268 24.1202V31.2446H111.717V24.1202H119.268Z" fill="currentColor"/>
</svg>
